<svg width="14" height="13" viewBox="0 0 14 13" fill="none" xmlns="http://www.w3.org/2000/svg"><path d="M7.699.764l1.457 2.93a.777.777 0 0 0 .586.424l3.258.47a.772.772 0 0 1 .432 1.319l-2.358 2.282a.769.769 0 0 0-.224.684l.557 3.221c.109.632-.559 1.114-1.13.816l-2.914-1.521a.782.782 0 0 0-.725 0l-2.913 1.52c-.571.299-1.24-.183-1.13-.815l.556-3.221a.767.767 0 0 0-.224-.684L.57 5.907a.771.771 0 0 1 .432-1.319l3.257-.47a.778.778 0 0 0 .587-.423L6.302.765a.781.781 0 0 1 1.397 0z" fill="#FFC400"/></svg>